<svg preserveAspectRatio="none" width="100%" height="100%" overflow="visible" style="display: block;" viewBox="0 0 353 349" fill="none" xmlns="http://www.w3.org/2000/svg">
<g id="Vector">
<path d="M85.0789 279.487H42.3923C42.3923 279.487 42.3923 279.521 42.3923 279.588V285.405C42.3923 285.471 42.3923 285.505 42.3923 285.505H83.5723V309.375H42.3923C42.3923 309.375 42.3923 309.408 42.3923 309.475C42.3923 311.748 42.3923 313.654 42.3923 315.191C42.3923 316.662 42.3923 318.133 42.3923 319.604C42.3923 321.075 42.3923 322.947 42.3923 325.221H0.609553C0.609553 320.474 0.609553 315.726 0.609553 310.979C0.609553 306.232 0.609553 301.518 0.609553 296.838C0.609553 292.091 0.609553 287.344 0.609553 282.596C0.609553 277.849 0.609553 273.102 0.609553 268.355C0.609553 265.279 0.609553 262.237 0.609553 259.228C0.609553 256.153 0.609553 253.077 0.609553 250.001H85.0789V279.487Z" fill="var(--fill-0, #3C3E4A)"/>
<path d="M85.5882 290.419C86.5256 290.954 87.4965 291.456 88.5009 291.924C89.5053 292.325 90.5432 292.626 91.6146 292.826C92.6859 293.027 93.6903 293.127 94.6277 293.127C96.7035 293.127 98.4444 292.626 99.8506 291.623C101.324 290.62 102.06 289.049 102.06 286.909C102.06 286.374 102.06 285.204 102.06 283.399C102.06 281.593 102.06 279.387 102.06 276.779C102.06 274.172 102.06 271.43 102.06 268.555C102.06 265.68 102.06 262.939 102.06 260.331C102.06 257.724 102.06 255.484 102.06 253.612C102.06 251.74 102.06 250.536 102.06 250.001H143.743C143.743 252.609 143.743 256.019 143.743 260.231C143.743 264.443 143.743 268.756 143.743 273.169C143.743 275.308 143.743 277.415 143.743 279.487C143.743 281.56 143.743 283.532 143.743 285.405C143.743 287.21 143.743 288.881 143.743 290.419C143.743 291.89 143.743 293.127 143.743 294.13C143.743 295.066 143.743 295.701 143.743 296.036C143.743 301.853 142.772 306.767 140.83 310.779C138.888 314.723 136.277 317.899 132.996 320.306C129.714 322.713 126.032 324.452 121.947 325.522C117.863 326.591 113.678 327.126 109.392 327.126C104.839 327.126 100.554 326.725 96.5361 325.923C92.5185 325.12 88.8692 323.75 85.5882 321.811V290.419Z" fill="var(--fill-0, #3C3E4A)"/>
<path d="M145.78 250.001H218.397C224.29 250.001 229.178 251.071 233.061 253.211C236.945 255.283 239.858 257.991 241.799 261.334C243.741 264.611 244.712 268.087 244.712 271.765C244.712 275.576 243.641 279.287 241.498 282.897C239.422 286.441 236.242 289.349 231.956 291.623C227.738 293.896 222.448 295.033 216.087 295.033C215.819 295.033 215.15 295.033 214.078 295.033C213.007 295.033 211.902 295.033 210.764 295.033C209.692 295.033 208.989 295.033 208.655 295.033C208.655 295.033 208.655 295.066 208.655 295.133C208.655 295.2 208.655 295.233 208.655 295.233C208.655 295.233 208.655 295.267 208.655 295.334C208.655 295.334 208.655 295.367 208.655 295.434H231.454L246.922 325.221H199.213C197.941 321.811 196.635 318.401 195.296 314.991C194.024 311.581 192.718 308.171 191.379 304.761C190.107 301.351 188.801 297.941 187.462 294.531H199.113C200.452 294.531 201.624 294.331 202.628 293.929C203.699 293.528 204.57 292.993 205.24 292.325C205.909 291.656 206.411 290.921 206.746 290.118C207.081 289.249 207.248 288.38 207.248 287.511C207.248 286.307 206.947 285.171 206.344 284.101C205.742 283.031 204.838 282.162 203.633 281.493C202.427 280.825 200.921 280.49 199.113 280.49H187.663C187.663 280.49 187.629 280.524 187.562 280.591C187.562 280.591 187.529 280.591 187.462 280.591C187.462 280.591 187.462 280.624 187.462 280.691C187.462 285.037 187.462 288.246 187.462 290.319C187.462 292.325 187.462 293.595 187.462 294.13C187.462 294.598 187.462 294.765 187.462 294.631C187.462 294.631 187.462 294.999 187.462 295.735C187.462 296.403 187.462 297.339 187.462 298.543C187.462 299.746 187.462 301.117 187.462 302.655C187.462 304.861 187.462 307.302 187.462 309.976C187.462 312.651 187.462 315.325 187.462 318C187.462 320.607 187.462 323.014 187.462 325.221H145.78C145.78 320.942 145.78 316.662 145.78 312.383C145.78 308.037 145.78 303.725 145.78 299.446C145.78 295.166 145.78 290.887 145.78 286.608C145.78 282.262 145.78 277.949 145.78 273.67C145.78 269.726 145.78 265.781 145.78 261.836C145.78 257.891 145.78 253.946 145.78 250.001Z" fill="var(--fill-0, #3C3E4A)"/>
<path d="M307.112 250.001C313.407 250.001 318.964 250.703 323.785 252.107C328.673 253.445 332.858 255.317 336.34 257.724C339.822 260.131 342.668 262.939 344.878 266.148C347.087 269.291 348.728 272.667 349.799 276.278C350.87 279.888 351.406 283.566 351.406 287.31C351.406 292.057 350.536 296.704 348.795 301.251C347.121 305.731 344.476 309.776 340.86 313.386C337.311 316.997 332.724 319.872 327.1 322.011C321.542 324.151 314.88 325.221 307.112 325.221H247.251C247.251 320.942 247.251 316.696 247.251 312.484C247.251 308.204 247.251 303.959 247.251 299.746C247.251 295.467 247.251 291.222 247.251 287.009C247.251 282.73 247.251 278.451 247.251 274.172C247.251 270.16 247.251 266.148 247.251 262.137C247.251 258.058 247.251 254.013 247.251 250.001H307.112ZM299.077 278.886H287.125C287.125 278.886 287.091 278.886 287.025 278.886C287.025 278.886 287.025 278.919 287.025 278.986C287.025 278.986 287.025 279.019 287.025 279.086V296.136C287.025 296.203 287.025 296.27 287.025 296.336C287.091 296.336 287.125 296.336 287.125 296.336H299.278C300.751 296.336 302.057 296.102 303.195 295.634C304.401 295.166 305.405 294.531 306.208 293.729C307.012 292.927 307.615 291.99 308.016 290.921C308.485 289.851 308.719 288.748 308.719 287.611C308.719 286.006 308.318 284.535 307.514 283.198C306.778 281.861 305.706 280.825 304.3 280.089C302.894 279.287 301.153 278.886 299.077 278.886Z" fill="var(--fill-0, #3C3E4A)"/>
<path d="M105.232 104.531V31.5564C105.232 14.1283 91.0415 0 73.537 0L31.6947 0C14.1902 0 0 14.1283 0 31.5564V215.767C0 233.195 14.1902 247.324 31.6947 247.324H157.285C174.79 247.324 188.98 233.195 188.98 215.767V94.2748C188.98 76.8467 203.17 62.7184 220.674 62.7184H253.162C261.476 62.7184 268.217 62.7184 268.217 66.0231H223.448C200.878 66.0231 192.364 82.7658 192.364 95.0637V215.767C192.364 233.195 206.554 247.324 224.058 247.324H321.305C338.81 247.324 353 233.195 353 215.767V123.662V31.5564C353 14.1283 338.81 0 321.305 0H141.042C123.537 0 109.347 14.1283 109.347 31.5564V103.347C109.347 116.846 102.389 126.583 77.6521 125.167H54.6734C41.5993 125.167 41.5993 125.167 41.5993 121.887H87.7996C97.4271 121.887 105.232 114.116 105.232 104.531Z" fill="var(--fill-0, #3C3E4A)"/>
<path d="M0.576061 329.03H9.29614V330.323H2.18738V336.949H8.79062L8.53787 338.21H2.18738V348.59H0.576061V329.03Z" fill="var(--fill-0, #3C3E4A)"/>
<path d="M57.7732 329.03H63.7129C64.6186 329.03 65.2821 329.146 65.7034 329.377C66.1457 329.587 66.4301 329.924 66.5564 330.386C66.7039 330.828 66.7776 331.386 66.7776 332.059V335.592C66.7776 336.349 66.7144 337.064 66.588 337.737C66.4617 338.389 66.1352 338.926 65.6086 339.346C65.082 339.746 64.2184 339.946 63.0179 339.946H59.3845V348.59H57.7732V329.03ZM65.9877 349L62.3544 339.851L63.4918 339.725L63.9341 339.851L64.0289 340.072L67.4727 348.432L65.9877 349ZM62.6071 338.652C63.4496 338.652 64.0815 338.442 64.5028 338.021C64.9451 337.601 65.1663 336.885 65.1663 335.876V332.69C65.1663 331.785 65.0083 331.165 64.6924 330.828C64.3975 330.492 63.8393 330.323 63.0179 330.323H59.3845V338.652H62.6071Z" fill="var(--fill-0, #3C3E4A)"/>
<path d="M115.896 329.03H124.616V330.323H117.507V336.949H124.11L123.858 338.21H117.507V347.328H124.616V348.59H115.896V329.03Z" fill="var(--fill-0, #3C3E4A)"/>
<path d="M173.216 329.03H174.828V348.59H173.216V329.03Z" fill="var(--fill-0, #3C3E4A)"/>
<path d="M228.601 348.685C227.632 348.685 226.8 348.611 226.105 348.464C225.431 348.295 224.915 348.001 224.556 347.58C224.219 347.139 224.051 346.529 224.051 345.751V331.838C224.051 330.66 224.441 329.882 225.22 329.503C226.02 329.104 227.147 328.904 228.601 328.904C230.012 328.904 231.086 329.104 231.823 329.503C232.581 329.903 232.961 330.691 232.961 331.869V335.213L231.349 335.371V332.153C231.349 331.354 231.107 330.828 230.623 330.576C230.159 330.323 229.485 330.197 228.601 330.197C227.716 330.197 227 330.313 226.452 330.544C225.926 330.776 225.662 331.301 225.662 332.122V345.53C225.662 346.077 225.778 346.487 226.01 346.76C226.263 347.012 226.61 347.181 227.052 347.265C227.516 347.328 228.032 347.359 228.601 347.359C229.169 347.359 229.654 347.328 230.054 347.265C230.475 347.181 230.802 347.012 231.033 346.76C231.265 346.487 231.381 346.077 231.381 345.53V339.441H227.905L228.095 338.084H232.961V345.751C232.961 346.529 232.792 347.139 232.455 347.58C232.118 348.001 231.623 348.295 230.97 348.464C230.317 348.611 229.527 348.685 228.601 348.685Z" fill="var(--fill-0, #3C3E4A)"/>
<path d="M282.057 329.03H283.668V336.949H289.324V329.03H290.935V348.59H289.324V338.21H283.668V348.59H282.057V329.03Z" fill="var(--fill-0, #3C3E4A)"/>
<path d="M342.67 330.323H339.194V329.03H347.82V330.323H344.281V348.59H342.67V330.323Z" fill="var(--fill-0, #3C3E4A)"/>
</g>
</svg>
