<svg preserveAspectRatio="none" width="100%" height="100%" overflow="visible" style="display: block;" viewBox="0 0 792.479 64.8007" fill="none" xmlns="http://www.w3.org/2000/svg">
<g id="Group 170">
<rect id="Rectangle 26" x="1" y="21.3987" width="790.479" height="42.402" rx="17" stroke="var(--stroke-0, #D4D8ED)" stroke-width="2"/>
<g id="Union">
<mask id="path-2-inside-1_92_21" fill="white">
<path d="M735.785 0C744.913 0.000124517 753.873 2.4501 761.731 7.09375L782.04 19.0947C797.811 28.4149 791.201 52.5911 772.883 52.5918H408.696V52.5908H19.6181C0.892364 52.5905 -5.38427 27.5535 11.1269 18.7197L34.8447 6.03125C42.2456 2.07181 50.5098 0 58.9033 0H735.785Z"/>
</mask>
<path d="M735.785 0V-2V-2V0ZM761.731 7.09375L760.714 8.81557V8.81559L761.731 7.09375ZM782.04 19.0947L783.058 17.3729L783.057 17.3729L782.04 19.0947ZM772.883 52.5918V54.5918H772.883L772.883 52.5918ZM408.696 52.5918H406.696V54.5918H408.696V52.5918ZM408.696 52.5908H410.696V50.5908H408.696V52.5908ZM19.6181 52.5908L19.6181 54.5908H19.6181V52.5908ZM11.1269 18.7197L10.1835 16.9562L10.1834 16.9563L11.1269 18.7197ZM34.8447 6.03125L35.7881 7.79475L35.7881 7.79474L34.8447 6.03125ZM735.785 0L735.785 2C744.555 2.00012 753.164 4.35402 760.714 8.81557L761.731 7.09375L762.749 5.37192C754.583 0.546181 745.271 -1.99987 735.785 -2V0ZM761.731 7.09375L760.714 8.81559L781.022 20.8166L782.04 19.0947L783.057 17.3729L762.749 5.37191L761.731 7.09375ZM782.04 19.0947L781.022 20.8165C795.041 29.1012 789.166 50.5911 772.883 50.5918L772.883 52.5918L772.883 54.5918C793.237 54.591 800.58 27.7286 783.058 17.3729L782.04 19.0947ZM772.883 52.5918V50.5918H408.696V52.5918V54.5918H772.883V52.5918ZM408.696 52.5918H410.696V52.5908H408.696H406.696V52.5918H408.696ZM408.696 52.5908V50.5908H19.6181V52.5908V54.5908H408.696V52.5908ZM19.6181 52.5908L19.6181 50.5908C2.973 50.5906 -2.60616 28.3354 12.0704 20.4832L11.1269 18.7197L10.1834 16.9563C-8.16238 26.7716 -1.18827 54.5905 19.6181 54.5908L19.6181 52.5908ZM11.1269 18.7197L12.0703 20.4832L35.7881 7.79475L34.8447 6.03125L33.9012 4.26775L10.1835 16.9562L11.1269 18.7197ZM34.8447 6.03125L35.7881 7.79474C42.8988 3.99056 50.8389 2 58.9033 2V0V-2C50.1806 -2 41.5923 0.153051 33.9012 4.26776L34.8447 6.03125ZM58.9033 0V2H735.785V0V-2H58.9033V0Z" fill="var(--stroke-0, #D4D8ED)" mask="url(#path-2-inside-1_92_21)"/>
</g>
</g>
</svg>
