<svg preserveAspectRatio="none" width="100%" height="100%" overflow="visible" style="display: block;" viewBox="0 0 154.268 335.183" fill="none" xmlns="http://www.w3.org/2000/svg">
<g id="Group 4">
<rect id="Rectangle 21" x="1.00004" y="1" width="152.268" height="333.183" rx="21" stroke="var(--stroke-0, #D4D8ED)" stroke-width="2"/>
<path id="Rectangle 22" d="M21.8572 4.85684H65.3367C67.8148 4.857 69.824 6.866 69.824 9.34415C69.824 12.927 72.7285 15.8315 76.3113 15.8315H77.6082C81.1908 15.8312 84.0955 12.9268 84.0955 9.34415C84.0955 6.86606 86.1038 4.8571 88.5818 4.85684H132.412C141.801 4.85684 149.412 12.468 149.412 21.8568V313.677C149.412 323.066 141.801 330.677 132.412 330.677H21.8572C12.4684 330.677 4.85729 323.066 4.85721 313.677V21.8568C4.85721 12.468 12.4684 4.85684 21.8572 4.85684Z" stroke="var(--stroke-0, #D4D8ED)" stroke-width="2"/>
<circle id="Ellipse 26" cx="76.9591" cy="8.94051" r="2.33079" stroke="var(--stroke-0, #D4D8ED)" stroke-width="2"/>
</g>
</svg>
